<svg width="138" height="66" viewBox="0 0 138 66" fill="none" xmlns="http://www.w3.org/2000/svg">
<path d="M69.5853 23.3133L75.9383 12.237L97.519 10.8532L98.2738 9.50372L78.3285 8.11991L83.0175 0.0343097H120.015C131.394 0.0343097 139.8 4.12285 136.523 16.0454C135.551 19.6936 130.925 28.8142 117.333 32.6226C120.232 32.9657 127.397 36.145 126.139 44.385C123.943 59.0123 105.038 65.9657 94.4997 65.9657L50.8066 66L48.6337 57.537L71.5353 55.9359L72.3187 54.5807L47.4672 53.071L44.7967 43.0355L80.1241 40.9598L80.9075 39.6389L17.4578 35.6761L20.5113 30.3868L88.833 25.9551L89.6221 24.6342L69.5853 23.3133ZM98.1766 25.5148L104.467 25.4805C108.687 25.4519 113.055 23.5363 114.662 19.6593C116.143 16.0454 114.159 12.9633 111.517 12.9919H105.416L98.1766 25.5148ZM90.9144 38.0664L83.332 51.2469H90.5656C93.9336 51.2469 99.9435 49.5772 101.796 44.7967C103.523 40.3308 100.35 38.0664 98.148 38.0664H90.9144ZM35.7962 58.4176L31.3932 65.9371L0 65.9943L3.05354 60.7163L35.7962 58.4176ZM37.9977 0L63.2552 0.0343097L65.1766 7.17068L35.0071 5.28366L37.9977 0ZM66.589 12.8375L69.3566 23.3133L26.2296 20.4828L29.2488 15.222L66.589 12.8375ZM44.6309 43.0355L39.1586 52.5335L8.73748 50.8066L11.791 45.523L44.6309 43.0355Z" fill="#FFBB00"/>
</svg>
