<svg width="189" height="66" viewBox="0 0 189 66" fill="none" xmlns="http://www.w3.org/2000/svg">
<path d="M188.547 0L50.6078 58.733C39.1691 63.5777 29.5636 66 21.7912 66C12.9922 66 6.61037 62.9177 2.64561 56.7532C0.157808 52.7937 -0.575438 47.771 0.445869 41.685C1.47241 35.5991 4.18542 29.1099 8.5849 22.2174C12.2511 16.6394 18.2664 9.30699 26.6306 0.219973C23.7899 4.68605 21.7086 9.59188 20.4713 14.7382C18.2716 24.1238 20.2514 31.0163 26.4106 35.4158C29.3436 37.4689 33.3765 38.4954 38.5092 38.4954C42.6101 38.4954 47.2296 37.8355 52.3675 36.5157L188.547 0Z" fill="#FFBB00"/>
</svg>
