<svg width="85" height="66" viewBox="0 0 85 66" fill="none" xmlns="http://www.w3.org/2000/svg">
<path d="M84.4385 0.921957C82.9619 -0.979499 80.3804 0.543806 79.2437 1.20735C71.1558 6.00915 69.9624 14.464 67.1437 19.3193C64.927 23.2079 61.2938 26.0618 58.0076 26.283C55.5784 26.4578 52.9438 25.9834 50.3305 24.8382C43.9316 22.052 40.4861 18.4453 39.6469 17.8103C37.9224 16.4904 24.6679 3.48696 13.8675 2.95541C13.8675 2.95541 12.5502 0.279814 12.2209 0.233437C11.4348 0.144251 10.6274 1.84236 10.0396 2.02073C9.50841 2.20981 8.57709 0.194195 8.03884 0.283382C7.49705 0.354731 6.96942 2.37391 5.91417 3.41204C5.13512 4.17191 4.19319 4.12554 3.65848 5.06378C3.47434 5.40625 3.53808 6.00915 3.32915 6.56211C2.87943 7.7037 1.37799 7.82499 1.36383 9.04863C1.36383 10.4078 2.62801 10.6683 3.73284 11.6172C4.61104 12.3735 4.67124 12.9086 5.69462 13.2618C6.60823 13.5757 7.93261 12.5947 9.10826 12.9479C10.0892 13.2368 11.0311 13.4473 11.24 14.4569C11.4312 15.3702 11.24 16.8043 10.036 16.6438C9.63943 16.5902 7.91845 16.023 5.79377 16.2513C3.22646 16.526 0.294412 17.3537 0.00758103 20.2112C-0.137605 21.8059 1.82772 23.6716 3.74346 23.3006C5.05722 23.0473 4.43752 21.4955 5.15637 20.7463C6.10185 19.7831 11.4312 24.114 16.3888 24.114C18.4887 24.114 20.0397 23.5789 21.5836 21.9557C21.7253 21.8522 21.913 21.5918 22.1325 21.5633C22.3795 21.6254 22.6134 21.7317 22.823 21.8772C26.828 25.0772 29.8486 31.5094 44.5301 31.5843C46.591 31.6092 48.9565 32.5796 50.8899 34.3562C52.5897 35.9009 53.5954 38.3696 54.5621 40.8668C56.0423 44.6233 58.6733 48.2479 62.6783 52.2934C62.8908 52.536 66.184 55.076 66.4319 55.2651C66.4744 55.3007 66.7294 55.8608 66.6196 56.1748C66.5488 58.6363 66.184 65.6999 71.4532 65.996C72.7493 66.0673 72.427 65.1719 72.427 64.5333C72.4093 63.3168 72.1969 62.0896 72.8272 60.8232C73.7231 59.1179 70.9646 58.2938 71.0248 54.5587C71.092 51.7618 68.7407 52.2363 67.5403 50.0994C66.8675 48.8757 66.2372 48.2015 66.3009 46.7246C66.5594 38.234 64.4701 32.6402 63.4503 31.2882C62.6465 30.2393 61.9524 29.8505 62.7173 29.3617C67.1083 26.4543 68.1175 23.7466 68.1175 23.7466C70.4546 18.2491 72.5651 13.2404 75.4653 11.0107C76.0532 10.5826 77.551 9.44105 78.4824 9.01295C81.1842 7.72153 82.6361 6.95096 83.3974 6.2018C84.6581 4.99956 85.646 2.44526 84.4385 0.921957Z" fill="#FFBB00"/>
</svg>
