<svg width="236" height="66" viewBox="0 0 236 66" fill="none" xmlns="http://www.w3.org/2000/svg">
<path d="M147.233 27.8929C174.271 17.0893 191.105 10.8821 235.714 0C211.485 1.60089 157.909 5.27411 120.98 12.483L147.233 27.9027M63.1616 63.7607H98.5188C105.521 53.1536 112.485 47.9875 120.597 42.242C114.436 39.8591 108.242 37.5639 102.015 35.3571C79.4554 45.3161 66.9036 58.683 63.1911 63.7607M70.1545 25.1821C38.6277 36.4473 21.1063 48.6848 9.27143 63.7607H48.3116C52.1125 58.467 66.5991 43.2045 93.8143 32.5875C85.9801 29.9446 78.0981 27.4755 70.1545 25.1821ZM86.3304 1.45357H0C87.0375 17.1679 128.985 37.4 196.429 66C190.663 61.6884 97.7134 6.94375 86.3402 1.45357" fill="#FFBB00"/>
</svg>
